<svg xmlns="http://www.w3.org/2000/svg" width="300" height="82.19" viewBox="0 0 300 82.19">
  <defs>
    <style>
      .a {
        fill: #fff;
      }

      .b {
        fill: #209fcd;
      }
    </style>
  </defs>
  <g>
    <path class="a" d="M74,12.14V77.88a8.2,8.2,0,0,1-8.22,8.2v0a8.22,8.22,0,0,1-8.22-8.22V38.16L47,53.2l-3.3,4.71a8.23,8.23,0,0,1-13.46,0L27,53.2l-10.52-15V77.88A8.22,8.22,0,0,1,8.22,86.1v0A8.2,8.2,0,0,1,0,77.88V12.14A8.22,8.22,0,0,1,15,7.43l1.49,2.12L37,38.9,57.53,9.55,59,7.43A8.22,8.22,0,0,1,74,12.14Z" transform="translate(0 -3.9)"/>
    <path class="a" d="M78.08,45h0a41.09,41.09,0,0,0,41.09,41.1h0A41.1,41.1,0,0,0,160.26,45h0A41.09,41.09,0,0,0,119.17,3.91h0A41.09,41.09,0,0,0,78.08,45Zm41.09,24.66h0A24.66,24.66,0,0,1,94.51,45h0a24.66,24.66,0,0,1,24.66-24.66h0A24.65,24.65,0,0,1,143.82,45h0A24.65,24.65,0,0,1,119.17,69.66Z" transform="translate(0 -3.9)"/>
    <path class="a" d="M221.9,77.88h0a8.22,8.22,0,0,1-8.22,8.22H172.59a8.22,8.22,0,0,1-8.22-8.22V12.13a8.22,8.22,0,0,1,8.22-8.22h0a8.22,8.22,0,0,1,8.22,8.22V69.66h32.87A8.22,8.22,0,0,1,221.9,77.88Z" transform="translate(0 -3.9)"/>
    <g>
      <path class="a" d="M300,45a41.12,41.12,0,1,1-12-29A41.11,41.11,0,0,1,300,45Z" transform="translate(0 -3.9)"/>
      <path class="b" d="M280,32.42V20.83a2.56,2.56,0,0,0-2.55-2.54h-3.53a2.56,2.56,0,0,0-2.55,2.54v5.84l-7.48-5a9.79,9.79,0,0,0-9.95,0L226.2,40.15c-.25.16-.25.33,0,.49a14.22,14.22,0,0,0,11.59,1.48c0,23.18.08,29.59,21.12,29.59s21-6.41,21-29.59a14.41,14.41,0,0,0,11.67-1.48c.16-.08.16-.33,0-.49ZM257.26,61.6A1.37,1.37,0,0,1,256,63h-2.88a5.65,5.65,0,0,1-5.59-5.59V56.34a1.39,1.39,0,0,1,1.4-1.4H256a1.32,1.32,0,0,1,1.31,1.4Zm0-10.27c0,.74-.65,1.31-1.64,1.31h-6.49a1.5,1.5,0,0,1-1.65-1.31v-6a1.23,1.23,0,0,1,.74-1.07l6.5-3.86c1.06-.58,2.54,0,2.54,1.15Zm13.07,6.08a5.57,5.57,0,0,1-5.5,5.59H262a1.44,1.44,0,0,1-1.4-1.4V56.34a1.39,1.39,0,0,1,1.4-1.4H269a1.32,1.32,0,0,1,1.31,1.4Zm0-6.08a1.5,1.5,0,0,1-1.64,1.31H262.2a1.5,1.5,0,0,1-1.65-1.31V41.55c0-1.15,1.56-1.73,2.63-1.15l6.49,3.86a1.3,1.3,0,0,1,.66,1.07Z" transform="translate(0 -3.9)"/>
    </g>
  </g>
</svg>
